<svg version="1.1" xmlns="http://www.w3.org/2000/svg" xmlns:xlink="http://www.w3.org/1999/xlink" width="2000" height="2000"><defs/><g transform="scale(2,2)"><g id="background-4a8f9b75"><rect fill="white" stroke="none" x="0" y="0" width="1000" height="1000" class="dcg-svg-background"/></g><g id="background-images-4a8f9b75"/><g id="graphpaper-4a8f9b75"><g id="axis-4a8f9b75"><g><g><path fill="none" stroke="rgb(0,0,0)" class="dcg-svg-tickmark" paint-order="fill stroke markers" d="" stroke-opacity="0.9" stroke-miterlimit="2" stroke-width="1.5" stroke-dasharray=""/></g></g></g></g><g id="expressions-4a8f9b75"><g id="sketch-4a8f9b75"><title>Expression 1</title><path fill="#000000" stroke="none" paint-order="stroke fill markers" d="" fill-opacity="0.4"/><path fill="#000000" stroke="none" paint-order="stroke fill markers" d="" fill-opacity="0.4"/><g><path fill="none" stroke="#000000" class="dcg-svg-curve" paint-order="fill stroke markers" d=" M 158.69684230194258 447.2191523757433 L 158.69684230194258 447.2191523757433 L 158.93554687500006 458.0491383936328 L 159.66796875 469.0470327386844 L 160.88867187499997 479.97102512030324 L 162.59765625000003 490.83564856432116 L 164.794921875 501.6304589721617 L 167.48046874999997 512.3407502064855 L 170.654296875 522.9504377357011 L 174.31640624999997 533.4427407712146 L 178.46679687500003 543.800374715564 L 183.10546874999997 554.0055942747533 L 188.47656249999997 564.4910119023505 L 194.3359375 574.6938839383934 L 200.68359375000003 584.6146853678176 L 207.763671875 594.5737839889395 L 215.33203124999997 604.171227872381 L 223.6328125 613.6686334864589 L 232.42187499999997 622.7394556691975 L 241.943359375 631.5923499604323 L 252.19726562499994 640.1488925924469 L 263.427734375 648.5062141317912 L 275.146484375 656.2296424946063 L 287.109375 663.1751818985996 L 299.072265625 669.2606054802561 L 311.279296875 674.6552094183351 L 323.486328125 679.2835614758881 L 335.93749999999994 683.2617988986699 L 348.388671875 686.5271309871345 L 360.83984375 689.1084305989857 L 373.53515625 691.0585460784655 L 386.23046875 692.3365426382879 L 398.92578125 692.952907042689 L 411.62109375 692.9126187969277 L 424.31640625 692.2153539527308 L 437.01171875 690.8554719548194 L 449.462890625 688.8673449316594 L 461.9140625 686.214922956881 L 474.36523437499994 682.8757762771098 L 486.57226562500006 678.9068389431836 L 498.77929687499994 674.2132064975606 L 510.7421875 668.8660171175859 L 522.705078125 662.7235448938371 L 534.423828125 655.8677428431126 L 545.8984375 648.2683307279126 L 557.12890625 639.8809418954188 L 567.87109375 630.8598286865844 L 577.63671875 621.6828029036033 L 586.669921875 612.2279219520377 L 594.970703125 602.5722364568096 L 602.5390625 592.8011000435374 L 609.619140625 582.6430142865203 L 615.966796875 572.4996288187917 L 621.826171875 562.034939145701 L 626.953125 551.7556160374675 L 631.591796875 541.253838606594 L 635.7421875 530.5270432957407 L 639.404296875 519.5591759281234 L 642.333984375 509.25193861033785 L 644.7753906249999 498.9953682006905 L 646.728515625 488.9128141893074 L 648.4375 477.3437231419375 L 649.4140625 467.9576037882116 L 650.146484375 455.6320537533935 L 650.2905011036183 447.2191523757433" stroke-linecap="round" stroke-linejoin="round" stroke-miterlimit="10" stroke-width="2.5" stroke-opacity="0.9" stroke-dasharray=""/></g><g><path fill="none" stroke="#000000" class="dcg-svg-curve" paint-order="fill stroke markers" d=" M 158.69684230194258 447.2191452269665 L 158.69684230194258 447.2191452269665 L 158.93554687500006 436.389159209077 L 159.66796875 425.3912648640254 L 160.88867187499997 414.46727248240654 L 162.59765625000003 403.6026490383887 L 164.794921875 392.8078386305481 L 167.48046874999997 382.0975473962243 L 170.654296875 371.48785986700875 L 174.31640624999997 360.99555683149526 L 178.46679687500003 350.6379228871458 L 183.10546874999997 340.43270332795646 L 188.47656249999997 329.94728570035943 L 194.3359375 319.7444136643164 L 200.68359375000003 309.82361223489227 L 207.763671875 299.8645136137703 L 215.33203124999997 290.2670697303289 L 223.6328125 280.76966411625096 L 232.42187499999997 271.6988419335123 L 241.943359375 262.84594764227734 L 252.19726562499994 254.28940501026284 L 263.427734375 245.93208347091866 L 275.146484375 238.20865510810347 L 287.109375 231.2631157041102 L 299.072265625 225.17769212245366 L 311.279296875 219.78308818437472 L 323.486328125 215.1547361268216 L 335.93749999999994 211.1764987040399 L 348.388671875 207.91116661557533 L 360.83984375 205.32986700372408 L 373.53515625 203.37975152424428 L 386.23046875 202.10175496442184 L 398.92578125 201.48539056002073 L 411.62109375 201.52567880578204 L 424.31640625 202.22294364997902 L 437.01171875 203.58282564789033 L 449.462890625 205.57095267105046 L 461.9140625 208.2233746458288 L 474.36523437499994 211.56252132559996 L 486.57226562500006 215.53145865952627 L 498.77929687499994 220.2250911051492 L 510.7421875 225.572280485124 L 522.705078125 231.71475270887265 L 534.423828125 238.57055475959726 L 545.8984375 246.16996687479707 L 557.12890625 254.55735570729098 L 567.87109375 263.5784689161254 L 577.63671875 272.7554946991065 L 586.669921875 282.21037565067206 L 594.970703125 291.8660611459002 L 602.5390625 301.63719755917236 L 609.619140625 311.7952833161895 L 615.966796875 321.93866878391805 L 621.826171875 332.40335845700884 L 626.953125 342.68268156524243 L 631.591796875 353.18445899611584 L 635.7421875 363.9112543069691 L 639.404296875 374.8791216745864 L 642.333984375 385.186358992372 L 644.7753906249999 395.44292940201933 L 646.728515625 405.5254834134024 L 648.4375 417.0945744607724 L 649.4140625 426.4806938144982 L 650.146484375 438.8062438493163 L 650.2905011036183 447.2191452269665" stroke-linecap="round" stroke-linejoin="round" stroke-miterlimit="10" stroke-width="2.5" stroke-opacity="0.9" stroke-dasharray=""/></g></g><g id="sketch-4a8f9b75"><title>Expression 2</title><path fill="#000000" stroke="none" paint-order="stroke fill markers" d="" fill-opacity="0.4"/><path fill="#000000" stroke="none" paint-order="stroke fill markers" d="" fill-opacity="0.4"/><g><path fill="none" stroke="#000000" class="dcg-svg-curve" paint-order="fill stroke markers" d=" M 146.63004217927488 447.2191488013549 L 146.63004217927488 447.2191488013549 L 146.97265625 460.50741547555094 L 147.94921875 473.26900657820954 L 149.4140625 485.00862352636966 L 151.36718750000003 496.4190921567622 L 153.80859374999997 507.63970095742263 L 156.73828125 518.7098330380163 L 160.15624999999997 529.6380531053637 L 164.06250000000003 540.4205602963739 L 168.45703125 551.047641012311 L 173.33984375000003 561.5063276702556 L 178.95507812500003 572.2231256900624 L 185.05859375 582.6514122945598 L 191.65039062499997 592.7917737384655 L 198.97460937500003 602.9611355966492 L 206.78710937500003 612.7660202413408 L 215.33203124999997 622.4661893248648 L 224.60937499999997 631.9765335814545 L 234.37499999999997 641.0058587923069 L 245.1171875 649.9327095569112 L 256.591796875 658.450507395346 L 268.5546875 666.3406767372287 L 280.76171875 673.4580827838299 L 292.96875 679.7182741120203 L 305.419921875 685.29065807136 L 318.115234375 690.1850249976768 L 330.810546875 694.3313673310129 L 343.505859375 697.7668252593639 L 356.44531249999994 700.5667491629063 L 369.384765625 702.6815063906039 L 382.32421875 704.128017443156 L 395.26367187499994 704.91753555264 L 408.203125 705.0560960902791 L 421.142578125 704.5447506096085 L 434.08203124999994 703.3796071284359 L 447.021484375 701.5516803036232 L 459.71679687499994 699.1001879393756 L 472.41210937500006 695.9775401275583 L 485.10742187499994 692.1580691758163 L 497.55859374999994 687.703185101856 L 510.00976562499994 682.5062188975102 L 522.216796875 676.6421581764428 L 534.1796875 670.0984630897811 L 546.142578125 662.6935991207026 L 557.8613281249999 654.5160696530447 L 569.3359375 645.5135734276529 L 579.833984375 636.2943353887124 L 589.599609375 626.7447549680634 L 598.6328125 616.9355164314486 L 606.9335937499999 606.9430649584272 L 614.501953125 596.852611519831 L 621.5820312499999 586.3819871603539 L 627.9296875 575.9436541439678 L 633.7890625 565.1906504031658 L 638.916015625 554.6426848679374 L 643.5546874999999 543.8808379912159 L 647.7050781250001 532.9038219766765 L 651.3671875 521.6981299232509 L 654.296875 511.1879775657128 L 656.9824218750001 499.5935935956076 L 658.935546875 489.0877956612715 L 660.400390625 478.9272335984516 L 661.62109375 466.69067319948 L 662.109375 458.5240524150388 L 662.357301226286 447.2191488013549" stroke-linecap="round" stroke-linejoin="round" stroke-miterlimit="10" stroke-width="2.5" stroke-opacity="0.9" stroke-dasharray=""/></g><g><path fill="none" stroke="#000000" class="dcg-svg-curve" paint-order="fill stroke markers" d=" M 146.63004217927488 447.2191488013549 L 146.63004217927488 447.2191488013549 L 146.97265625 433.93088212715884 L 147.94921875 421.16929102450024 L 149.4140625 409.4296740763401 L 151.36718750000003 398.0192054459476 L 153.80859374999997 386.79859664528715 L 156.73828125 375.72846456469347 L 160.15624999999997 364.80024449734617 L 164.06250000000003 354.017737306336 L 168.45703125 343.39065659039875 L 173.33984375000003 332.9319699324542 L 178.95507812500003 322.2151719126474 L 185.05859375 311.78688530815 L 191.65039062499997 301.6465238642443 L 198.97460937500003 291.47716200606055 L 206.78710937500003 281.6722773613691 L 215.33203124999997 271.972108277845 L 224.60937499999997 262.46176402125525 L 234.37499999999997 253.4324388104029 L 245.1171875 244.50558804579862 L 256.591796875 235.9877902073638 L 268.5546875 228.09762086548108 L 280.76171875 220.98021481887997 L 292.96875 214.72002349068964 L 305.419921875 209.1476395313499 L 318.115234375 204.2532726050331 L 330.810546875 200.1069302716969 L 343.505859375 196.67147234334584 L 356.44531249999994 193.87154843980363 L 369.384765625 191.7567912121059 L 382.32421875 190.31028015955383 L 395.26367187499994 189.52076205006972 L 408.203125 189.3822015124307 L 421.142578125 189.89354699310127 L 434.08203124999994 191.05869047427393 L 447.021484375 192.88661729908642 L 459.71679687499994 195.3381096633342 L 472.41210937500006 198.46075747515147 L 485.10742187499994 202.2802284268936 L 497.55859374999994 206.73511250085392 L 510.00976562499994 211.93207870519961 L 522.216796875 217.7961394262669 L 534.1796875 224.33983451292863 L 546.142578125 231.74469848200727 L 557.8613281249999 239.92222794966506 L 569.3359375 248.9247241750569 L 579.833984375 258.1439622139975 L 589.599609375 267.6935426346464 L 598.6328125 277.5027811712613 L 606.9335937499999 287.4952326442826 L 614.501953125 297.58568608287885 L 621.5820312499999 308.0563104423559 L 627.9296875 318.49464345874196 L 633.7890625 329.24764719954385 L 638.916015625 339.79561273477236 L 643.5546874999999 350.55745961149387 L 647.7050781250001 361.5344756260332 L 651.3671875 372.74016767945886 L 654.296875 383.250320036997 L 656.9824218750001 394.8447040071022 L 658.935546875 405.3505019414383 L 660.400390625 415.5110640042582 L 661.62109375 427.7476244032298 L 662.109375 435.914245187671 L 662.357301226286 447.2191488013549" stroke-linecap="round" stroke-linejoin="round" stroke-miterlimit="10" stroke-width="2.5" stroke-opacity="0.9" stroke-dasharray=""/></g></g><g id="sketch-4a8f9b75"><title>Expression 3</title><path fill="#000000" stroke="none" paint-order="stroke fill markers" d="" fill-opacity="0.4"/><g><path fill="none" stroke="#000000" class="dcg-svg-curve" paint-order="fill stroke markers" d=" M 484.4836278615523 497.93824713844765 L 484.4836278615523 497.93824713844765 L 493.6264746073294 506.3735253926706 L 503.9365946867774 517.578125 L 512.0533356562825 528.6277036874351 L 517.578125 538.4885702172149 L 519.9385106595221 543.9453125 L 521.5954612346868 548.7170387653132 L 522.6962002563818 552.734375 L 523.8806595452608 559.0369095452606 L 524.3228742348502 563.5677507651498 L 524.3471558590182 570.3125 L 523.240421864795 579.1015625 L 522.2894243276854 583.1793256723147 L 519.9705965748549 590.2830965748549 L 517.1625302852657 596.6796875 L 512.1913726999596 605.46875 L 507.17677771479345 612.6455277147934 L 498.3846339382645 623.046875 L 490.40882895035696 631.033828950357 L 479.425330388459 640.625 L 464.84375 651.6932687609328 L 447.265625 663.3578949949673 L 426.0490289245162 675.78125 L 405.1422214142872 686.767578125 L 404.4189453125 687.0549235252619 L 390.4569051576537 679.8555948423464 L 376.95312499999994 672.4251923740989 L 359.375 661.883754189427 L 346.58927024190916 653.4107297580908 L 341.796875 650.0118635051298 L 324.21875 636.1258414111542 L 315.42968749999994 628.0059551832549 L 306.64062499999994 618.620458186693 L 300.80684873605617 611.3025262639437 L 296.7959707056013 605.46875 L 293.90029387795704 600.630956122043 L 291.28742965917195 595.567222670414 L 288.1417967320167 587.890625 L 287.6796006169663 586.5077256169664 L 285.7469215407659 579.1015625 L 284.9925423229731 574.3824576770269 L 284.6401875465427 570.3125 L 284.6609725407166 563.6262074018139 L 285.5491676513008 556.2477073486991 L 286.8609903000105 550.5328653000106 L 289.0625 543.9102953502157 L 293.09466353992605 535.15625 L 299.74984432523456 524.4689056747654 L 306.64062499999994 515.6911596464626 L 315.4296875 506.30555252208444 L 324.21875 498.18604924212144 L 334.3125832378387 489.9061667621613 L 350.5859375 478.1661419780078 L 365.62384110585367 468.55236971170734 L 381.34765625 459.4130501775189 L 400.04816338705615 449.462890625 L 404.40073731531834 447.265625" stroke-linecap="round" stroke-linejoin="round" stroke-miterlimit="10" stroke-width="2.5" stroke-opacity="0.9" stroke-dasharray=""/></g><g><path fill="none" stroke="#000000" class="dcg-svg-curve" paint-order="fill stroke markers" d=" M 404.5866060902426 447.265625 L 404.5866060902426 447.265625 L 434.08203125 463.06062883676486 L 448.91266106484574 471.9857764351542 L 460.44921875 479.5569425963463 L 474.82259114630773 490.02115885369227 L 484.4836278615523 497.93824713844765" stroke-linecap="round" stroke-linejoin="round" stroke-miterlimit="10" stroke-width="2.5" stroke-opacity="0.9" stroke-dasharray=""/></g></g><g id="sketch-4a8f9b75"><title>Expression 4</title><path fill="#000000" stroke="none" paint-order="stroke fill markers" d="" fill-opacity="0.4"/><g><path fill="none" stroke="#000000" class="dcg-svg-curve" paint-order="fill stroke markers" d=" M 405.51757812499994 207.85905575678214 L 405.51757812499994 207.85905575678214 L 404.4189453125 207.38337408688903 L 390.39624175970005 214.61499175970005 L 376.95312499999994 222.01310368550162 L 359.375 232.5545412067753 L 346.53443968044894 241.06568968044894 L 341.796875 244.42644280009063 L 324.21875 258.312427383373 L 315.42968749999994 266.43238016582814 L 306.64062499999994 275.81785990121705 L 300.76745063283397 283.18932563283397 L 296.73665655656674 289.0624999999999 L 293.8670171973418 293.86701719734185 L 291.25186680717326 298.9462459035866 L 288.1097291322727 306.640625 L 287.6356071426716 308.0675178573283 L 285.72847721566717 315.4296875 L 284.9825969010145 320.1388469010145 L 284.6353664960892 324.21875 L 284.6638623888322 330.860889426022 L 285.56996656557084 338.3043415655708 L 286.88122089568094 343.97815410431906 L 289.0812563170107 350.57655934149466 L 293.1443355880537 359.375 L 299.98254586517754 370.2950458651775 L 306.640625 378.7468877340766 L 315.42968749999994 388.1324264837633 L 324.21875 396.2523354491349 L 333.89401097520937 404.2065109752093 L 350.5859375 416.2724890782913 L 365.659352912567 425.907856674866 L 381.34765625 435.0247728696612 L 400.2306623629752 445.068359375 L 403.3203125 446.6064184014007 L 405.51757812499994 446.6890544244468 L 421.0533672256899 438.63149222568995 L 436.9942921762522 429.6875 L 451.66015625 420.70456704022615 L 465.84958627671034 411.1035387232897 L 476.22361951943003 403.3203125 L 486.72377957310067 394.53125 L 493.5796979898338 388.1109479898338 L 503.8596760893592 376.953125 L 512.0271442368784 365.85116347375674 L 517.578125 355.94943944409727 L 519.9024618860398 350.5859375 L 521.5736014999874 345.7923514999874 L 522.6737747575446 341.796875 L 523.8659919829702 335.5090080170298 L 524.3175760041606 330.9582010041605 L 524.3519769094717 324.21875 L 523.2588661898938 315.4296875 L 522.3231228254767 311.38562282547673 L 519.9964400848286 304.2223099151714 L 517.208221159655 297.8515625 L 512.2506868489942 289.0624999999999 L 507.21686123501826 281.8456387649818 L 498.47119463658964 271.484375 L 490.4567672886454 263.44948271135456 L 479.53913763607454 253.90625 L 464.84375 242.74503055372452 L 447.265625 231.0803990190401 L 426.217329270713 218.75 L 405.51757812499994 207.85905575678214" stroke-linecap="round" stroke-linejoin="round" stroke-miterlimit="10" stroke-width="2.5" stroke-opacity="0.9" stroke-dasharray=""/></g></g><g id="sketch-4a8f9b75"><title>Expression 5</title><path fill="#000000" stroke="none" paint-order="stroke fill markers" d="" fill-opacity="0.4"/><g><path fill="none" stroke="#000000" class="dcg-svg-curve" paint-order="fill stroke markers" d=" M 310.76139216973706 333.0078125 L 310.76139216973706 333.0078125 L 315.42968749999994 335.2294162841654 L 324.21874999999994 340.3982302253046 L 332.4985806426236 346.44602217868817 L 337.4089994586381 350.5726260827237 L 346.5978357161333 359.375 L 354.5798089186009 368.1640624999999 L 361.740647402671 376.953125 L 368.6106462896224 386.1887712896224 L 378.85329357332466 401.4201439266752 L 385.74218749999994 412.6478813300523 L 395.0828075310739 429.13594246892603 L 403.50365837199104 445.25170524699115 L 404.4189453125 447.1100406738648" stroke-linecap="round" stroke-linejoin="round" stroke-miterlimit="10" stroke-width="2.5" stroke-opacity="0.9" stroke-dasharray=""/></g><g><path fill="none" stroke="#000000" class="dcg-svg-curve" paint-order="fill stroke markers" d=" M 404.4189453125 447.36855502369497 L 404.4189453125 447.36855502369497 L 388.74961257461194 476.640237574612 L 381.34765625 489.04433508245216 L 374.30340753723044 500 L 368.1640625 508.873879716295 L 359.375 520.4833996425723 L 350.5859375 530.804778371822 L 341.796875 539.838015904044 L 332.4270272606236 548.0494511303118 L 324.21875 554.0400673774052 L 315.42968749999994 559.2088813185444 L 310.5476651114826 561.5234375 L 306.64062499999994 563.0895540626559 L 297.85156249999994 565.6820856097399 L 289.0625 566.9864759597962 L 281.46483085826395 567.0759671794226 L 271.484375 565.7308330688259 L 261.49683354002315 562.7219164599769 L 253.90624999999994 559.3226253897451 L 240.23845620059953 550.7792093997002 L 236.32812499999994 547.7618529225538 L 220.72400602808779 533.1822439719122 L 218.74999999999997 531.0485156672521 L 204.7280292012541 514.0219707987459 L 201.17187499999997 509.1826136238397 L 190.38317109619732 493.2105789038026 L 183.59374999999994 482.16414679231684 L 173.7827939691535 464.84375 L 164.64376831105068 447.2656249999999 L 166.01562499999997 444.4451824300262 L 177.2307630871323 423.32451308713235 L 183.69166952877904 412.109375 L 194.7485543822329 394.53125 L 204.688157572317 380.469407572317 L 207.3734570529065 376.953125 L 222.51635725890387 359.375 L 231.69006003982952 350.5859375 L 239.06729626033592 344.536046260336 L 245.11718749999994 340.2519878480466 L 253.90624999999994 335.11567221296457 L 262.6953125 331.26749777491045 L 265.3420552388527 330.3610697611473 L 275.2676890383083 328.0020640383083 L 281.51687685089667 327.35968262250515 L 289.0625 327.4518216429135 L 292.67591253887736 327.83216253887736 L 301.2526536620381 329.60672133796186 L 310.76139216973706 333.0078125" stroke-linecap="round" stroke-linejoin="round" stroke-miterlimit="10" stroke-width="2.5" stroke-opacity="0.9" stroke-dasharray=""/></g></g><g id="sketch-4a8f9b75"><title>Expression 6</title><path fill="#000000" stroke="none" paint-order="stroke fill markers" d="" fill-opacity="0.4"/><g><path fill="none" stroke="#000000" class="dcg-svg-curve" paint-order="fill stroke markers" d=" M 404.55627441406244 447.34432154748504 L 404.55627441406244 447.34432154748504 L 406.7361062673319 451.66015625 L 415.51573343754256 468.2501084375425 L 423.6202507855031 482.421875 L 431.2800923910665 494.8091725544668 L 439.8113687782575 507.4542562217426 L 447.5062486971875 517.8187486971876 L 456.05468749999994 528.1749778058805 L 464.84375 537.5521547122994 L 473.63281249999994 545.6411904216905 L 482.8412451858129 552.734375 L 493.53644613045014 559.1979288695499 L 500 562.1794503676982 L 508.78906250000006 565.1159212889788 L 517.578125 566.764251013232 L 520.8422975249555 567.0483274750446 L 526.7291283316677 567.1116652605663 L 535.15625 566.1964868706551 L 540.4538597257321 565.014890274268 L 552.7343750000001 560.4761579399678 L 557.8458067687287 557.8458067687288 L 570.3125 549.60326422117 L 578.2031732415559 543.0469232415559 L 587.8906249999999 533.5778057142617 L 595.4336464104443 525.1211464104442 L 605.4687499999999 512.3997824192428 L 614.1766990061101 500 L 625.2403964760982 482.421875 L 628.3432535894781 477.1254964105219 L 640.625 454.5860414648737 L 644.3435750940423 447.265625 L 635.2548588284011 429.6875 L 623.046875 408.3691032665963 L 610.6852505601969 389.3147494398031 L 601.6138881576218 376.953125 L 595.4762028209174 369.3675471790825 L 586.4709871560258 359.375 L 578.2521678991518 351.4353321008483 L 566.1530584533486 341.796875 L 557.9054801272599 336.6257698727402 L 552.7343750000001 333.96213966274195 L 540.3271903395041 329.389690339504 L 531.6569807237358 327.7180192762643 L 526.7052603484257 327.32572315837297 L 517.578125 327.6740465894778 L 513.5222301404607 328.2746448595393 L 505.9204731733299 330.1392231733299 L 498.22598980809124 333.0078125 L 491.21093749999994 336.48345935331986 L 481.7434555215211 342.4752944784789 L 471.56322173190773 350.5859375 L 462.3895427643841 359.375 L 454.4074984246843 368.1640624999999 L 447.1806756033339 377.03807439666605 L 438.4765625 388.88209720074974 L 428.933312818992 403.3203125 L 420.8984375 416.6534393927807 L 411.8363390825272 432.9833984375 L 404.55627441406244 447.1372924512251" stroke-linecap="round" stroke-linejoin="round" stroke-miterlimit="10" stroke-width="2.5" stroke-opacity="0.9" stroke-dasharray=""/></g></g><g id="sketch-4a8f9b75"><title>Expression 7</title><path fill="#000000" stroke="none" paint-order="stroke fill markers" d="" fill-opacity="0.4"/><g><path fill="none" stroke="#000000" class="dcg-svg-curve" paint-order="fill stroke markers" d=" M 391.60053354946945 461.91303354946945 L 391.60053354946945 461.91303354946945 L 397.52267209645265 454.65157834645265 L 403.8884421971877 447.8337546971877 L 404.4189453125 447.38730938136143 L 406.11355694515055 448.86691180484945 L 412.67831015576104 456.0546875 L 419.5283492228969 464.84375 L 423.54854890960326 470.98270109039674 L 425.09024709300525 473.6328125 L 429.6875 483.218330358138 L 432.34961924213894 491.21093749999994 L 433.4736394493039 496.2138605506961 L 434.04709352116436 500 L 434.4691440499445 506.16644889961935 L 434.1885211815717 513.0771038184282 L 432.928507049834 520.819132049834 L 431.41066917607486 526.3671875 L 428.49840913890256 533.9671591389026 L 426.2580240806416 538.5857259193584 L 420.8984375 547.5441267208714 L 414.2018752852271 556.5010158389204 L 407.71484375 563.8430474875577 L 404.63262944334815 567.0166015625" stroke-linecap="round" stroke-linejoin="round" stroke-miterlimit="10" stroke-width="2.5" stroke-opacity="0.9" stroke-dasharray=""/></g><g><path fill="none" stroke="#000000" class="dcg-svg-curve" paint-order="fill stroke markers" d=" M 404.4189453125 567.0809475957547 L 404.4189453125 567.0809475957547 L 398.92578125 561.3021371719883 L 394.53124999999994 556.1908506123634 L 389.5051003940208 549.5963811514948 L 385.76251821765993 543.9249817823401 L 383.3997475945963 539.8411298108073 L 379.7799431609776 532.3294318390224 L 376.95312499999994 524.306607512958 L 375.1202409948994 515.7452409948994 L 374.5100210833349 506.94123859553616 L 374.94024988439656 500 L 375.1791503512418 498.22602535124173 L 376.95312499999994 490.0684895835328 L 379.62333963947503 482.421875 L 381.8411668457712 477.5338331542288 L 386.5170275979814 469.23828125 L 391.60053354946945 461.91303354946945" stroke-linecap="round" stroke-linejoin="round" stroke-miterlimit="10" stroke-width="2.5" stroke-opacity="0.9" stroke-dasharray=""/></g></g><g id="sketch-4a8f9b75"><title>Expression 8</title><path fill="#000000" stroke="none" paint-order="stroke fill markers" d="" fill-opacity="0.4"/><g><path fill="none" stroke="#000000" class="dcg-svg-curve" paint-order="fill stroke markers" d=" M 405.51757812499994 328.31537744980733 L 405.51757812499994 328.31537744980733 L 404.2620492424611 327.5146484375 L 396.9246000213618 335.4011625213617 L 391.7358424493711 341.796875 L 386.65973086443586 349.07682939832694 L 383.375513758596 354.64165251719203 L 379.75251045809796 362.17438545809796 L 376.95312499999994 370.1315517536681 L 375.1048923790418 378.80135762095813 L 374.51006868619083 387.5082849132481 L 374.95146263381514 394.53125 L 375.1913158586915 396.2930591413085 L 376.95312499999994 404.36976149159386 L 379.6617989381841 412.109375 L 381.9326683715645 417.08891837156455 L 386.5759218086584 425.29296875 L 391.64029249305287 432.5784575069471 L 397.5658672747567 439.83647647524333 L 403.3203125 446.0331937673094 L 405.12097967462773 446.57271872241654 L 412.109375 439.04586563723933 L 416.50390624999994 433.679104343429 L 422.7924208773858 424.68640425477156 L 425.0381645196509 420.8984375 L 429.6875 411.2196345262164 L 432.32478321807514 403.3203125 L 433.4592155148254 398.3029655148255 L 434.03588077174584 394.53125 L 434.4685388100062 388.3068084613475 L 434.19856738316275 381.46419238316275 L 432.94567885245436 373.6949461475456 L 431.44032625059214 368.1640624999999 L 428.5270828680555 360.53541713194454 L 426.3594349971729 356.0469349971728 L 420.8984375 346.8941990850417 L 414.24914142361524 337.99478455728854 L 407.71484375 330.5952486530041 L 405.51757812499994 328.31537744980733" stroke-linecap="round" stroke-linejoin="round" stroke-miterlimit="10" stroke-width="2.5" stroke-opacity="0.9" stroke-dasharray=""/></g></g><g id="sketch-4a8f9b75"><title>Expression 9</title><path fill="#000000" stroke="none" paint-order="stroke fill markers" d="" fill-opacity="0.4"/><g><path fill="none" stroke="#000000" class="dcg-svg-curve" paint-order="fill stroke markers" d=" M 379.3144287309917 427.3261962690083 L 379.3144287309917 427.3261962690083 L 385.74218749999994 431.3993655328329 L 394.999006947497 438.4765625 L 403.42940509333965 446.1669921875 L 403.92069004352027 446.66524745647973" stroke-linecap="round" stroke-linejoin="round" stroke-miterlimit="10" stroke-width="2.5" stroke-opacity="0.9" stroke-dasharray=""/></g><g><path fill="none" stroke="#000000" class="dcg-svg-curve" paint-order="fill stroke markers" d=" M 404.4189453125 447.2938286334146 L 404.4189453125 447.2938286334146 L 396.72851562499994 454.4815587361412 L 389.35171119890157 460.44921875 L 381.34765625 465.89831962967173 L 376.95312499999994 468.4356718902096 L 367.3794826873196 472.84823268731964 L 365.2188986808506 473.6328125 L 359.375 475.3647279397918 L 350.5859375 476.89704416904146 L 347.0693818494762 477.14936815052374 L 341.796875 477.14121920126354 L 334.83963217614667 476.42097965720166 L 330.96947759914383 475.67114740085606 L 324.06119263726407 473.7115911813679 L 317.80994280415246 471.25255719584754 L 306.0239566734765 464.84375 L 296.185837748364 457.72041225163593 L 284.60359406902336 447.265625 L 289.0625 442.8829933456941 L 296.13437178265235 436.75937178265247 L 306.64062499999994 429.20179024283425 L 317.745673071574 423.21442307157406 L 324.21875 420.67315192808496 L 330.893688612962 418.784313612962 L 336.0758912685666 417.8303587314334 L 341.796875 417.29707840144624 L 350.5859375 417.5412534336683 L 353.5675497897112 417.9168252102887 L 359.375 419.073569662918 L 368.7859549744754 422.14222244895086 L 369.84635656138806 422.580731561388 L 379.3144287309917 427.3261962690083" stroke-linecap="round" stroke-linejoin="round" stroke-miterlimit="10" stroke-width="2.5" stroke-opacity="0.9" stroke-dasharray=""/></g></g><g id="sketch-4a8f9b75"><title>Expression 10</title><path fill="#000000" stroke="none" paint-order="stroke fill markers" d="" fill-opacity="0.4"/><g><path fill="none" stroke="#000000" class="dcg-svg-curve" paint-order="fill stroke markers" d=" M 404.55627441406244 447.281718836203 L 404.55627441406244 447.281718836203 L 413.0230657577689 455.1409967422311 L 420.8984375 461.3800924127096 L 428.2572538412786 466.2739961587213 L 434.62385800052505 469.78010800052516 L 439.9258137197028 472.1835612802972 L 447.265625 474.73770640521457 L 456.05468749999994 476.6139620086609 L 459.41262901440984 476.99075401440984 L 464.84375 477.2020764150798 L 472.6671746354576 476.6419314774847 L 476.07823844051995 476.07823844051995 L 485.155682960722 473.6328125 L 491.21093749999994 471.2375724521704 L 500 466.6731220704787 L 502.9633870549098 464.84375 L 511.49428564168244 458.7599106416825 L 520.9298860624517 450.6173860624518 L 524.3232812271514 447.1122656478485 L 517.4824418821295 440.673828125 L 509.41275078412673 434.08203125 L 503.10789548162967 429.6875 L 495.6659214143363 425.35342141433625 L 482.421875 419.92441596587537 L 476.15607508945936 418.37517491054064 L 471.37394157585527 417.63334171207237 L 464.84375 417.23622118763 L 456.05468749999994 417.8243355940489 L 453.40982571056185 418.2535757105618 L 443.50080468552613 420.8984375 L 434.80834485666173 424.5666551433384 L 425.29296875 430.0268479431072 L 416.50390624999994 436.41159773615027 L 408.34119179824023 443.4974417982403 L 405.00383631805636 446.7518831930564" stroke-linecap="round" stroke-linejoin="round" stroke-miterlimit="10" stroke-width="2.5" stroke-opacity="0.9" stroke-dasharray=""/></g></g></g><g id="labels-4a8f9b75"/></g></svg>