<svg version="1.1" xmlns="http://www.w3.org/2000/svg" xmlns:xlink="http://www.w3.org/1999/xlink" width="800" height="800"><defs/><g transform="scale(2,2)"><g id="background-11580ebd"><rect fill="white" stroke="none" x="0" y="0" width="400" height="400" class="dcg-svg-background"/></g><g id="background-images-11580ebd"/><g id="graphpaper-11580ebd"><g id="axis-11580ebd"><g><g><path fill="none" stroke="rgb(0,0,0)" class="dcg-svg-tickmark" paint-order="fill stroke markers" d="" stroke-opacity="0.9" stroke-miterlimit="2" stroke-width="1.5" stroke-dasharray=""/></g></g></g></g><g id="expressions-11580ebd"><g id="sketch-11580ebd"><title>Expression 1</title><path fill="#c74440" stroke="none" paint-order="stroke fill markers" d="" fill-opacity="0.4"/><g><path fill="none" stroke="#c74440" class="dcg-svg-curve" paint-order="fill stroke markers" d=" M 144.61077844311458 195.50598802395268 L 144.61077844311458 195.50598802395268 L 145.97746544738547 192.27194751271827 L 146.758429449826 191.06924171526825 L 147.34415245165638 190.62001923539336 L 147.8322549531817 190.55214883237704 L 148.32035745470702 190.73744773537356 L 149.00370095684247 191.32584983287057 L 151.15135196355388 193.46310334875238 L 151.63945446507918 193.53749173271444 L 152.12755696660452 193.3465509500217 L 152.7132799684349 192.75206506877464 L 153.39662347057035 191.5964764233886 L 154.37282847362098 189.3501568656432 L 155.934756478502 185.7196557780195 L 156.71572048094254 184.55926658049182 L 157.30144348277292 184.14247275870338 L 157.78954598429823 184.10521640289733 L 158.27764848582356 184.32672968606886 L 158.960991987959 184.97874140151498 L 161.20626349497547 187.48828123544513 L 161.67582987954492 187.6074870357748 L 162.1824684980261 187.4605749484539 L 162.67057099955144 187.03897417650407 L 163.3539145016869 186.02394770575478 L 164.33011950473752 183.9667051140085 L 165.89204750961855 180.5963703576292 L 166.575391011754 179.64638653022973 L 167.16111401358438 179.2478084469732 L 167.64921651510969 179.22930513356962 L 168.13731901663502 179.4806304429197 L 168.82066251877046 180.20496790911952 L 171.4564160270072 183.5525533448607 L 171.9445185285325 183.65197816297166 L 172.43262103005785 183.47927351677396 L 173.01834403188823 182.92060151133387 L 173.79930803432873 181.68036521409226 L 176.3374410422604 177.09717394311804 L 176.92316404409078 176.68872300198547 L 177.41126654561612 176.6602724917599 L 177.89936904714142 176.91358456655522 L 178.4850920489718 177.5474580384857 L 179.46129705202245 179.1439730637872 L 180.92560455659842 181.5756970275678 L 181.60894805873386 182.21722649989653 L 182.1261760162563 182.3705189494471 L 182.5851530617845 182.2498255063444 L 183.17087606361488 181.76437490788496 L 183.9518400660554 180.65944299361848 L 186.0994910727668 177.25875081683722 L 186.68521407459718 176.86327620564748 L 187.17331657612252 176.83608678784773 L 187.66141907764785 177.0955090546627 L 188.2471420794782 177.76029329502558 L 189.1257265822238 179.31042032237016 L 191.17575708863012 183.21977741592156 L 191.8591005907656 183.88214417261702 L 192.37508263230933 184.03543063585755 L 192.83530559381623 183.91746889357518 L 193.42102859564662 183.45700464447435 L 194.2996130983922 182.30931591062017 L 195.86154110327323 180.20384735124892 L 196.4472641051036 179.824292780754 L 196.93536660662892 179.79316654354483 L 197.42346910815425 180.0462858154731 L 198.0091921099846 180.71811815080898 L 198.79015611242514 182.13871468168767 L 201.52353012096694 187.80732961357057 L 202.20687362310238 188.3779535840569 L 202.69497612462771 188.4570265793493 L 203.18307862615302 188.27983577173066 L 203.86642212828846 187.68604924642318 L 206.20931413561001 185.2374437269023 L 206.69741663713535 185.1815787197984 L 207.18551913866065 185.40052648713979 L 207.77124214049104 186.0368064869366 L 208.45458564262648 187.24589940148323 L 209.43079064567712 189.56505576886337 L 210.99271865055815 193.28715928705873 L 211.77368265299867 194.49012218326692 L 212.35940565482906 194.94559048854003 L 212.84750815635437 195.02376779661438 L 213.33561065787967 194.85425519648146 L 214.01895416001514 194.29841014273086 L 216.0689846664215 192.38281268427775 L 216.5570871679468 192.3180414903247 L 217.0451896694721 192.51831472393621 L 217.6309126713025 193.1297602241646 L 218.31425617343797 194.3224793529529 L 219.29046117648858 196.67255169869048 L 221.04763018197974 201.01938291241356 L 221.82859418442024 202.23886156992438 L 222.41431718625063 202.69853713002337 L 222.90241968777596 202.7789208663154 L 223.3905221893013 202.61341093969 L 224.07386569143674 202.07057549769678 L 226.026275697538 200.30294775152657 L 226.51437819906334 200.228573167028 L 227.00248070058865 200.41388326531532 L 227.58820370241904 201.00345860426805 L 228.2715472045545 202.1701802154962 L 229.15013170730006 204.23807417712396 L 231.10254171340137 209.02018804532065 L 231.78588521553678 210.06034597714654 L 232.37160821736717 210.52492628184837 L 232.85971071889247 210.60514377939379 L 233.34781322041783 210.43328450587015 L 234.03115672255328 209.86776774141742 L 236.0811872289596 207.88386708088726 L 236.5692897304849 207.79330991389486 L 237.05739223201027 207.96318780924886 L 237.54549473353558 208.40927290721714 L 238.22883823567102 209.47328507439101 L 239.1074227384166 211.41646547516848 L 241.05983274451788 215.9741169147003 L 241.74317624665332 216.9476947106503 L 242.3288992484837 217.3542144569533 L 242.817001750009 217.382374136775 L 243.30510425153435 217.1528011200803 L 243.9884477536698 216.49354258194515 L 246.23371926068626 214.008741957822 L 246.67911346300457 213.9015538454362 L 247.20992426373692 214.0624202899533 L 247.79564726556728 214.6143513881993 L 248.5766112680078 215.89176103862164 L 249.74805727166859 218.48557338633836 L 250.91950327532936 220.91031887650638 L 251.60284677746478 221.8269785995811 L 252.18856977929516 222.1931659404867 L 252.6766722808205 222.1839036918925 L 253.16477478234583 221.9056708175653 L 253.84811828448127 221.14754570701234 L 256.483871792718 217.73661694805952 L 256.9719742942433 217.6338585469246 L 257.4600767957686 217.8030385347651 L 258.04579979759905 218.35518255751361 L 258.82676380003954 219.5791013896453 L 261.2672763076661 223.92418111407656 L 261.8529993094965 224.35085063076943 L 262.3411018110219 224.39611906369296 L 262.8292043125472 224.15711489795018 L 263.41492731437756 223.5321170394045 L 264.2935118171231 222.09853358011242 L 266.05068082261425 219.11562650219287 L 266.7340243247497 218.5209405067098 L 267.17677141981056 218.40823703441157 L 267.7102293278004 218.56994973131083 L 268.2959523296307 219.09328822629374 L 269.17453683237636 220.37713328417163 L 270.93170583786747 223.1133770492338 L 271.61504934000294 223.61794768014127 L 272.10315184152824 223.65574060763402 L 272.5912543430536 223.4066069830945 L 273.176977344884 222.7485699546688 L 273.95794134732444 221.38411201640653 L 276.300833354646 216.83667136877 L 276.98417685678146 216.22400705125818 L 277.4299529361465 216.10994341142214 L 277.96038185983207 216.26427266647647 L 278.54610486166246 216.75359330808777 L 279.5223098647131 218.0394731747798 L 280.7913763686789 219.66617158786397 L 281.3770993705093 220.0510107886925 L 281.8652018720346 220.0927993022308 L 282.35330437356 219.8522138495645 L 282.93902737539037 219.19261797983583 L 283.71999137783087 217.77385758438623 L 285.18429888240684 214.31991450583342 L 286.1605038854575 212.33541404663828 L 286.8438473875929 211.45371259545104 L 287.4295703894233 211.11718283109624 L 287.91767289094867 211.13407524297276 L 288.50339589277905 211.46712736327532 L 289.2843598952195 212.28039798741077 L 290.84628790010055 213.9635444302078 L 291.43201090193094 214.19623247578784 L 291.92011340345624 214.10873438911872 L 292.4082159049816 213.73962841166534 L 292.993938906812 212.9310121815691 L 293.77490290925243 211.3301392812399 L 296.6058974180993 204.8981643837381 L 297.28924092023476 204.2524131888881 L 297.7726067350935 204.12227267323055 L 298.2654459232854 204.2457445751537 L 298.94878942542084 204.75284226075783 L 301.0964404321322 206.7031228326578 L 301.5845429336576 206.74546575107212 L 302.07264543518295 206.52185845928307 L 302.65836843701334 205.88326632942974 L 303.34171193914875 204.66321427540333 L 304.3179169421994 202.28841653121074 L 304.61077844311455 201.50598802395268" stroke-linecap="round" stroke-linejoin="round" stroke-miterlimit="10" stroke-dasharray=""/></g></g><g id="sketch-11580ebd"><title>Expression 2</title><path fill="#c74440" stroke="none" paint-order="stroke fill markers" d="" fill-opacity="0.4"/><g><path fill="none" stroke="#c74440" class="dcg-svg-curve" paint-order="fill stroke markers" d=" M 144.61077844311458 219.50598802395268 L 144.61077844311458 219.50598802395268 L 145.87984494708041 216.53139380681014 L 146.56318844921586 215.5158923882007 L 147.14891145104625 215.09478682799073 L 147.63701395257158 215.03864098626462 L 148.32035745470702 215.2795776096237 L 149.58942395867285 215.84532269950142 L 150.07752646019816 215.79425971359427 L 150.5656289617235 215.47998549060839 L 151.15135196355388 214.72356698321715 L 151.93231596599438 213.14914090097162 L 154.17758747301087 208.0809089487836 L 154.86093097514632 207.3592106472417 L 155.34903347667162 207.19098540109155 L 155.934756478502 207.3086223212848 L 156.91096148155265 207.8971452474694 L 157.69192548399317 208.23102490509476 L 158.18002798551848 208.18457878139037 L 158.6681304870438 207.86910277082902 L 159.2538534888742 207.11586188214534 L 160.0348174913147 205.5773717321975 L 162.08484799772106 201.2004472621547 L 162.7681914998565 200.51371396712477 L 163.2532547600606 200.37621874496705 L 163.74439650290714 200.4989379147686 L 164.52536050534766 201.0489105260416 L 165.6968065090084 201.8605557589538 L 166.18490901053374 201.90974180879851 L 166.67301151205905 201.6918368252918 L 167.25873451388944 201.05877945109506 L 168.03969851632996 199.68680814083163 L 169.99210852243124 195.90539375144073 L 170.57783152426163 195.35560838409504 L 171.0393104546705 195.22409302836186 L 171.55403652731226 195.37364314185714 L 172.2373800294477 195.9372234278725 L 173.89692853463382 197.4672539005473 L 174.38503103615912 197.5429148204719 L 174.87313353768445 197.34157981722382 L 175.45885653951484 196.7396360683236 L 176.3374410422604 195.29224963610068 L 177.80174854683636 192.82027340045315 L 178.38747154866675 192.30924815503437 L 178.87557405019209 192.2057193845018 L 179.3636765517174 192.3955851385847 L 179.94939955354778 192.94757893272075 L 182.29229156086933 195.5514333214723 L 182.78039406239463 195.55540461961766 L 183.26849656391994 195.28113604124235 L 183.9518400660554 194.50416068497796 L 186.0994910727668 191.70950473764282 L 186.5478584346203 191.58361763950884 L 187.07569607581746 191.7595550782749 L 187.66141907764785 192.33547409730068 L 188.63762408069846 193.87255919061442 L 189.80907008435923 195.66229651107935 L 190.4924135864947 196.18779482863988 L 190.98051608802 196.23142333728794 L 191.46861858954534 196.00612288120863 L 192.1519620916808 195.34298821394532 L 193.81151059686687 193.56599775756723 L 194.30034535397394 193.42476478876438 L 194.78771559991753 193.57411403540578 L 195.27581810144284 194.01980325866936 L 195.95916160357828 195.0659324271178 L 198.3020536108998 199.11577321354758 L 198.8877766127302 199.43928211772442 L 199.37587911425553 199.4050982164868 L 199.9616021160859 199.06494044816034 L 202.01163262249224 197.56102755055207 L 202.49973512401758 197.66958985798573 L 202.9878376255429 198.07467900924337 L 203.67118112767835 199.10996247199267 L 204.647386130729 201.2051555968317 L 205.81883213438977 203.63918297551874 L 206.50217563652518 204.52890361015642 L 207.0878986383556 204.85492470045435 L 207.5760011398809 204.8339842628875 L 208.25934464201634 204.47979265743834 L 209.62603164628726 203.6430599625017 L 210.1141341478126 203.64150756412323 L 210.6022366493379 203.91363496302864 L 211.18795965116828 204.62894429001096 L 211.96892365360878 206.1560700947177 L 214.21419516062525 211.08710923986143 L 214.89753866276072 211.7768336393272 L 215.38564116428603 211.93256400707813 L 215.97136416611642 211.81594480754657 L 217.9237741722177 211.04078008308989 L 218.411876673743 211.26347887857077 L 218.99759967557338 211.9127247736833 L 219.68094317770885 213.16974894503835 L 220.75476868106455 215.80966026570178 L 221.82859418442024 218.30530113698921 L 222.5119376865557 219.3594368079631 L 223.0976606883861 219.81752327988187 L 223.5857631899114 219.90143578738594 L 224.1714861917418 219.73391487600296 L 225.7108696887944 219.10794621019977 L 226.22151669814815 219.24222599685592 L 226.70961919967345 219.65253923994226 L 227.39296270180893 220.70667491091615 L 228.2715472045545 222.70425531307592 L 229.93109570974056 226.62042974372207 L 230.614439211876 227.57919359110286 L 231.20016221370642 227.9485555552743 L 231.68826471523172 227.96513443590976 L 232.37160821736717 227.68131599245777 L 233.640674721333 227.08663614592245 L 234.12877722285833 227.1409381830776 L 234.61687972438364 227.46153526438854 L 235.20260272621402 228.22347964415462 L 235.98356672865455 229.78976703906602 L 238.13121773536596 234.53088667424 L 238.81456123750138 235.2423575290859 L 239.34346987504586 235.40098218983928 L 239.8883867408571 235.26044901061974 L 240.76697124360268 234.67240259169114 L 241.64555574634826 234.17799178501784 L 242.1336582478736 234.15705134745104 L 242.6217607493989 234.4002366379603 L 243.2074837512293 235.06587742842166 L 243.9884477536698 236.4969224023963 L 246.03847826007615 240.6934345700695 L 246.7218217622116 241.34238618991964 L 247.20992426373692 241.4509484973533 L 247.69802676526223 241.29332029812522 L 248.3813702673977 240.76030831141458 L 249.74805727166859 239.6435697238961 L 250.2361597731939 239.55833455269126 L 250.7242622747192 239.74289223745745 L 251.3099852765496 240.33331119542555 L 252.09094927899014 241.63234058657528 L 253.94573878478633 244.99217278923604 L 254.53146178661672 245.49186884441855 L 255.01956428814205 245.58128058869633 L 255.50766678966735 245.38630583365617 L 256.1910102918028 244.74515238636764 L 257.94817929729396 242.88589747805543 L 258.4104264511652 242.76377957987154 L 258.9243843003446 242.92079573853056 L 259.510107302175 243.46465695936772 L 260.38869180492054 244.80234989766592 L 261.7553788091915 246.90807347086596 L 262.3411018110219 247.35808907188107 L 262.8292043125472 247.41302492140005 L 263.3173068140725 247.17235401179795 L 263.90302981590287 246.551302284377 L 266.34354232352945 243.48970978280207 L 266.8316448250548 243.43718657428155 L 267.3197473265801 243.66112993536504 L 268.0030908287156 244.35690128561387 L 269.95550083481686 246.67633175497727 L 270.4228404477113 246.8099643360899 L 270.93170583786747 246.6459101609638 L 271.51742883969786 246.06953420622196 L 272.39601334244344 244.63609295246593 L 273.8603208470194 242.14706697493367 L 274.5436643491548 241.55577350515827 L 275.0317668506801 241.46742225604194 L 275.5198693522055 241.64492075446165 L 276.2032128543409 242.2287769506027 L 277.76514085922196 243.68832484990563 L 278.2532433607473 243.7848428851199 L 278.7413458622726 243.59417929993626 L 279.2294483637979 243.10658229646467 L 280.0104123662384 241.80334732157672 L 282.15806337294987 237.69869518827863 L 282.74378637478026 237.1989794078679 L 283.23188887630556 237.09213190700243 L 283.71999137783087 237.23464810966095 L 284.5009553802714 237.79758606843907 L 285.5747808836271 238.55544963812108 L 286.0628833851524 238.63074340296004 L 286.5509858866777 238.4358079792799 L 287.039088388203 237.94463215038496 L 287.7224318903385 236.79767253970826 L 288.7962573936942 234.34447083344423 L 289.8700828970499 232.05891911367465 L 290.55342639918535 231.14287327707635 L 291.13914940101574 230.79783304246746 L 291.62725190254105 230.7996642377601 L 292.3105954046765 231.11483080043595 L 293.5796619086424 231.79921817413452 L 294.0677644101677 231.78653318274905 L 294.555866911693 231.50567230461607 L 295.1415899135234 230.7816175000788 L 295.9225539159639 229.2348931807274 L 298.2654459232854 223.99095970468866 L 298.94878942542084 223.30952612761632 L 299.4368919269462 223.15876153228373 L 300.02261492877653 223.2739025874024 L 301.8774044345728 223.96876126390418 L 302.3655069360981 223.75848664053248 L 302.8536094376234 223.26240146424675 L 303.53695293975886 222.09584840646522 L 304.5131579428095 219.75885176229255 L 304.61077844311455 219.50598802395268" stroke-linecap="round" stroke-linejoin="round" stroke-miterlimit="10" stroke-dasharray=""/></g></g><g id="sketch-11580ebd"><title>Expression 8</title><path fill="white" stroke="#c74440" class="dcg-svg-point" paint-order="fill stroke markers" d=" M 229.60300505588023 212.60864981228016 L 229.60300505588023 212.60864981228016 A 0.7875 0.7875 0 1 0 229.60300466213027 212.6094373121489 Z" stroke-linecap="round" stroke-linejoin="round" stroke-miterlimit="10" stroke-width="0.46875" stroke-dasharray=""/></g><g id="sketch-11580ebd"><title>Expression 9</title><path fill="#c74440" stroke="none" paint-order="stroke fill markers" d="" fill-opacity="0.4"/><g><path fill="none" stroke="#c74440" class="dcg-svg-curve" paint-order="fill stroke markers" d=" M 144.5 219.5 L 144.5 219.5 L 144.5 195.5" stroke-linecap="round" stroke-linejoin="round" stroke-miterlimit="10" stroke-dasharray=""/></g></g><g id="sketch-11580ebd"><title>Expression 10</title><path fill="#c74440" stroke="none" paint-order="stroke fill markers" d="" fill-opacity="0.4"/><g><path fill="none" stroke="#c74440" class="dcg-svg-curve" paint-order="fill stroke markers" d=" M 304.5 219.5 L 304.5 219.5 L 304.5 201.5" stroke-linecap="round" stroke-linejoin="round" stroke-miterlimit="10" stroke-dasharray=""/></g></g></g><g id="labels-11580ebd"/></g></svg>