<svg version="1.1" xmlns="http://www.w3.org/2000/svg" xmlns:xlink="http://www.w3.org/1999/xlink" width="800" height="800"><defs/><g transform="scale(2,2)"><g id="background-33207f5c"><rect fill="white" stroke="none" x="0" y="0" width="400" height="400" class="dcg-svg-background"/></g><g id="background-images-33207f5c"/><g id="graphpaper-33207f5c"><g id="axis-33207f5c"><g><g><path fill="none" stroke="rgb(0,0,0)" class="dcg-svg-tickmark" paint-order="fill stroke markers" d="" stroke-opacity="0.9" stroke-miterlimit="2" stroke-width="1.5" stroke-dasharray=""/></g></g></g></g><g id="expressions-33207f5c"><g id="sketch-33207f5c"><title>Expression 2</title><path fill="#6042a6" stroke="none" paint-order="stroke fill markers" d="" fill-opacity="0.4"/><g><path fill="none" stroke="#6042a6" class="dcg-svg-curve" paint-order="fill stroke markers" d=" M 152.92401938924365 134.00319949164754 L 152.92401938924365 134.00319949164754 L 154.68143927867436 130.7570098869666 L 156.43885916810507 128.04812063064668 L 158.19627905753578 125.87653172268773 L 159.75843007036306 124.39729743028653 L 161.22294664488862 123.39607803114163 L 162.58982878111252 122.79824847686965 L 163.85907647903468 122.53415872231258 L 165.12832417695685 122.55032748279567 L 166.39757187487902 122.8467547583189 L 167.6668195728012 123.42344054888224 L 169.03370170902508 124.35791198808414 L 170.49821828355067 125.71981912108248 L 172.06036929637796 127.58378699626067 L 173.81778918580864 130.18820118484373 L 175.57520907523934 133.32991572178778 L 177.33262896467005 137.00893060709282 L 179.18768329240245 141.47523975284344 L 181.14037205843655 146.82336822032542 L 183.09306082447065 152.83483045121596 L 185.14338402880648 159.86077875651958 L 187.291341671444 168.00568820397314 L 189.53693375238322 177.379008864539 L 191.88016027162416 188.09516581240516 L 194.3210212291668 200.2735591249852 L 196.85951662501114 214.03856388291823 L 198.90983982934694 225.9748403718541" stroke-linecap="round" stroke-linejoin="round" stroke-miterlimit="10" stroke-dasharray=""/></g></g><g id="sketch-33207f5c"><title>Expression 3</title><path fill="#000000" stroke="none" paint-order="stroke fill markers" d="" fill-opacity="0.4"/><g><path fill="none" stroke="#000000" class="dcg-svg-curve" paint-order="fill stroke markers" d=" M 152.92401938924365 160.44504624470693 L 152.92401938924365 160.44504624470693 L 154.58380484037266 156.4411221904123 L 156.24359029150165 153.06023437339925 L 157.80574130432893 150.4473626793327 L 159.36789231715622 148.38638467642213 L 160.7347744533801 147.03575421740177 L 162.00402215130228 146.15994635790136 L 163.17563541092275 145.67488354340878 L 164.2496142322415 145.50295572360534 L 165.32359305356027 145.59188390626227 L 166.39757187487902 145.94166809137968 L 167.5691851344995 146.62075603166926 L 168.83843283242166 147.70675777744978 L 170.20531496864555 149.28375088323335 L 171.6698315431711 151.4422804077252 L 173.2319825559984 154.27935891382384 L 174.79413356882569 157.66833111107846 L 176.4539190199547 161.87382571272886 L 178.21133890938538 167.00579029006005 L 179.96875879881608 172.83624532026047 L 181.8238131265485 179.7483904267793 L 183.7765018925826 187.86510818928798 L 185.8268250969184 197.31574869165115 L 187.97478273955593 208.23612952192678 L 190.22037482049515 220.76853577236596 L 192.5636013397361 235.06172003941305 L 195.00446229727874 251.27090242370576 L 197.54295769312307 269.5577705300749 L 198.90983982934694 280.00817938897546" stroke-linecap="round" stroke-linejoin="round" stroke-miterlimit="10" stroke-dasharray=""/></g></g><g id="sketch-33207f5c"><title>Expression 4</title><path fill="#c74440" stroke="none" paint-order="stroke fill markers" d="" fill-opacity="0.4"/><g><path fill="none" stroke="#c74440" class="dcg-svg-curve" paint-order="fill stroke markers" d=" M 152.5 160.5 L 152.5 160.5 L 152.5 134.5" stroke-linecap="round" stroke-linejoin="round" stroke-miterlimit="10" stroke-dasharray=""/></g></g><g id="sketch-33207f5c"><title>Expression 5</title><path fill="#2d70b3" stroke="none" paint-order="stroke fill markers" d="" fill-opacity="0.4"/><g><path fill="none" stroke="#2d70b3" class="dcg-svg-curve" paint-order="fill stroke markers" d=" M 198.5 280.5 L 198.5 280.5 L 198.5 225.5" stroke-linecap="round" stroke-linejoin="round" stroke-miterlimit="10" stroke-dasharray=""/></g></g><g id="sketch-33207f5c"><title>Expression 16</title><path fill="white" stroke="#6042a6" class="dcg-svg-point" paint-order="fill stroke markers" d=" M 169.89268929055524 144.71426849410935 L 169.89268929055524 144.71426849410935 A 0.7875 0.7875 0 1 0 169.89268889680528 144.7150559939781 Z" stroke-linecap="round" stroke-linejoin="round" stroke-miterlimit="10" stroke-width="0.46875" stroke-dasharray=""/></g></g><g id="labels-33207f5c"/></g></svg>