<svg version="1.1" xmlns="http://www.w3.org/2000/svg" xmlns:xlink="http://www.w3.org/1999/xlink" width="800" height="800"><defs/><g transform="scale(2,2)"><g id="background-c063a2c5"><rect fill="white" stroke="none" x="0" y="0" width="400" height="400" class="dcg-svg-background"/></g><g id="background-images-c063a2c5"/><g id="graphpaper-c063a2c5"><g id="axis-c063a2c5"><g><g><path fill="none" stroke="rgb(0,0,0)" class="dcg-svg-tickmark" paint-order="fill stroke markers" d="" stroke-opacity="0.9" stroke-miterlimit="2" stroke-width="1.5" stroke-dasharray=""/></g></g></g></g><g id="expressions-c063a2c5"><g id="sketch-c063a2c5"><title>Expression 1</title><path fill="#c74440" stroke="none" paint-order="stroke fill markers" d="" fill-opacity="0.4"/><g><path fill="none" stroke="#c74440" class="dcg-svg-curve" paint-order="fill stroke markers" d=" M 100 200 L 100 200 L 100.1953125 177.71869453987713 L 100.48828125 172.01352285423906 L 100.9765625 166.7792405413901 L 101.5625 162.71936401217556 L 102.24609375 159.28367773379682 L 103.125 155.92558565012655 L 104.1015625 152.9984790788736 L 105.2734375 150.17174121534327 L 106.640625 147.48807818701357 L 108.30078125 144.82375428623513 L 110.25390625 142.2605899004041 L 112.40234375 139.94159803812943 L 114.74609375 137.84382203208563 L 117.28515625 135.94989842361514 L 120.01953125 134.246124027034 L 123.046875 132.67493795133223 L 126.3671875 131.2506068353676 L 130.078125 129.9508033475389 L 134.1796875 128.79806558382245 L 138.76953125 127.7870972183652 L 143.9453125 126.92395570435644 L 149.8046875 126.21972647988694 L 156.54296875 125.67785002116807 L 164.6484375 125.29457453697523 L 175.1953125 125.07108103825362 L 192.7734375 125.00051136707984 L 228.22265625 125.1192418416689 L 238.76953125 125.42724424404292 L 246.77734375 125.91430912847528 L 253.3203125 126.56378848266623 L 258.984375 127.38056148196107 L 263.96484375 128.35764284876905 L 268.359375 129.4801121278761 L 272.265625 130.73948267470553 L 275.78125 132.14016313526236 L 279.00390625 133.70682277454154 L 281.93359375 135.43134002469003 L 284.5703125 137.29956240205203 L 286.9140625 139.2890082855549 L 289.0625 141.47383167631497 L 291.015625 143.867119196362 L 292.7734375 146.48511820877053 L 294.23828125 149.1503005595023 L 295.5078125 151.98812947713003 L 296.58203125 154.97678873009448 L 297.4609375 158.06265246544885 L 298.2421875 161.63347205291464 L 298.828125 165.25548760366186 L 299.31640625 169.5798151670533 L 299.609375 173.52232238191164 L 299.8046875 177.71869453987713 L 299.90234375 181.25686575598908 L 300 200" stroke-linecap="round" stroke-linejoin="round" stroke-miterlimit="10" stroke-dasharray=""/></g></g><g id="sketch-c063a2c5"><title>Expression 2</title><path fill="#c74440" stroke="none" paint-order="stroke fill markers" d="" fill-opacity="0.4"/><g><path fill="none" stroke="#c74440" class="dcg-svg-curve" paint-order="fill stroke markers" d=" M 100 200 L 100 200 L 100.1953125 222.28130546012287 L 100.48828125 227.98647714576094 L 100.9765625 233.2207594586099 L 101.5625 237.28063598782444 L 102.24609375 240.71632226620318 L 103.125 244.07441434987345 L 104.1015625 247.0015209211264 L 105.2734375 249.82825878465673 L 106.640625 252.51192181298643 L 108.30078125 255.17624571376487 L 110.25390625 257.7394100995959 L 112.40234375 260.0584019618706 L 114.74609375 262.1561779679144 L 117.28515625 264.05010157638486 L 120.01953125 265.753875972966 L 123.046875 267.32506204866775 L 126.3671875 268.7493931646324 L 130.078125 270.0491966524611 L 134.1796875 271.20193441617755 L 138.76953125 272.2129027816348 L 143.9453125 273.07604429564356 L 149.8046875 273.78027352011304 L 156.54296875 274.32214997883193 L 164.6484375 274.70542546302477 L 175.1953125 274.9289189617464 L 192.7734375 274.99948863292013 L 228.22265625 274.8807581583311 L 238.76953125 274.5727557559571 L 246.77734375 274.0856908715247 L 253.3203125 273.4362115173338 L 258.984375 272.6194385180389 L 263.96484375 271.64235715123095 L 268.359375 270.5198878721239 L 272.265625 269.2605173252945 L 275.78125 267.85983686473764 L 279.00390625 266.29317722545846 L 281.93359375 264.56865997530997 L 284.5703125 262.700437597948 L 286.9140625 260.7109917144451 L 289.0625 258.52616832368506 L 291.015625 256.132880803638 L 292.7734375 253.51488179122947 L 294.23828125 250.8496994404977 L 295.5078125 248.01187052286997 L 296.58203125 245.02321126990552 L 297.4609375 241.93734753455115 L 298.2421875 238.36652794708536 L 298.828125 234.74451239633814 L 299.31640625 230.4201848329467 L 299.609375 226.47767761808836 L 299.8046875 222.28130546012287 L 299.90234375 218.74313424401092 L 300 200" stroke-linecap="round" stroke-linejoin="round" stroke-miterlimit="10" stroke-dasharray=""/></g></g><g id="sketch-c063a2c5"><title>Expression 8</title><path fill="white" stroke="#c74440" class="dcg-svg-point" paint-order="fill stroke markers" d=" M 200.7875 200 L 200.7875 200 A 0.7875 0.7875 0 1 0 200.78749960625004 200.00078749986875 Z" stroke-linecap="round" stroke-linejoin="round" stroke-miterlimit="10" stroke-width="0.46875" stroke-dasharray=""/></g></g><g id="labels-c063a2c5"/></g></svg>