<svg version="1.1" xmlns="http://www.w3.org/2000/svg" xmlns:xlink="http://www.w3.org/1999/xlink" width="800" height="800"><defs/><g transform="scale(2,2)"><g id="background-d0102c2c"><rect fill="white" stroke="none" x="0" y="0" width="400" height="400" class="dcg-svg-background"/></g><g id="background-images-d0102c2c"/><g id="graphpaper-d0102c2c"><g id="axis-d0102c2c"><g><g><path fill="none" stroke="rgb(0,0,0)" class="dcg-svg-tickmark" paint-order="fill stroke markers" d="" stroke-opacity="0.9" stroke-miterlimit="2" stroke-width="1.5" stroke-dasharray=""/></g></g></g></g><g id="expressions-d0102c2c"><g id="sketch-d0102c2c"><title>Expression 3</title><path fill="#c74440" stroke="none" paint-order="stroke fill markers" d="" fill-opacity="0.4"/><g><path fill="none" stroke="#c74440" class="dcg-svg-curve" paint-order="fill stroke markers" d=" M 153.33333333333334 190.40218320959323 L 153.33333333333334 190.40218320959323 L 155.48117154811715 181.661827799506 L 156.84797768479777 176.949842159012 L 158.01952580195257 173.68375613740824 L 158.9958158995816 171.59683877298377 L 159.8744769874477 170.24882395333884 L 160.7531380753138 169.41630925292156 L 161.4365411436541 169.123615487747 L 162.1199442119944 169.13326604157228 L 162.80334728033472 169.43236004227285 L 163.58437935843793 170.10584897525132 L 164.56066945606693 171.39615143141282 L 165.73221757322176 173.49863665391058 L 167.19665271966528 176.75211332739335 L 170.0278940027894 183.8551571029153 L 171.9804741980474 188.40569826187044 L 173.34728033472803 191.03580002091425 L 174.61645746164575 192.92135053774965 L 175.69037656903765 194.04459578887761 L 176.66666666666669 194.6737734051204 L 177.54532775453276 194.92258388970578 L 178.42398884239887 194.88205109281992 L 179.30264993026498 194.57113168643252 L 180.278940027894 193.93972597606322 L 181.4504881450488 192.84314893278736 L 183.01255230125523 190.9439127558965 L 185.64853556485355 187.1471847119968 L 188.87029288702928 182.62484511412356 L 190.8228730822873 180.38855461552936 L 192.58019525801953 178.8160335352449 L 194.23988842398884 177.71656201090985 L 195.80195258019526 176.99373262767088 L 197.46164574616458 176.51163602459073 L 199.2189679218968 176.27422979967426 L 201.0739191073919 176.29590647386578 L 202.83124128312414 176.57736032643217 L 204.49093444909346 177.1080754129843 L 206.05299860529985 177.8845810114542 L 207.61506276150627 178.9696135720419 L 209.17712691771268 180.38855461552936 L 210.9344490934449 182.37979300808206 L 213.17991631799163 185.4251342192078 L 218.25662482566247 192.5201575195187 L 219.6234309623431 193.8615381350134 L 220.697350069735 194.57113168643252 L 221.67364016736403 194.90031493205538 L 222.55230125523013 194.9095029980777 L 223.43096234309624 194.62769828071006 L 224.30962343096235 194.04459578887761 L 225.28591352859135 193.04184718565045 L 226.45746164574615 191.3631486823177 L 227.72663877266388 189.01564711060317 L 229.2887029288703 185.52639522836853 L 232.21757322175733 178.18110463286274 L 234.07252440725244 173.89802518801332 L 235.34170153417014 171.54996993507783 L 236.41562064156204 170.10584897525132 L 237.29428172942818 169.37252994135864 L 237.9776847977685 169.11381263792543 L 238.6610878661088 169.14667910651897 L 239.34449093444908 169.48332519400572 L 240.0278940027894 170.13079331468722 L 240.9065550906555 171.42184751174588 L 241.78521617852164 173.2182670369615 L 242.7615062761506 175.77435913495236 L 243.93305439330544 179.53711851853717 L 245.29986052998606 184.6983663701035 L 246.66666666666666 190.40218320959323" stroke-linecap="round" stroke-linejoin="round" stroke-miterlimit="10" stroke-dasharray=""/></g></g><g id="sketch-d0102c2c"><title>Expression 4</title><path fill="#c74440" stroke="none" paint-order="stroke fill markers" d="" fill-opacity="0.4"/><g><path fill="none" stroke="#c74440" class="dcg-svg-curve" paint-order="fill stroke markers" d=" M 153.33333333333334 209.59781679040677 L 153.33333333333334 209.59781679040677 L 155.48117154811715 218.338172200494 L 156.84797768479777 223.050157840988 L 158.01952580195257 226.31624386259176 L 158.9958158995816 228.40316122701623 L 159.8744769874477 229.75117604666116 L 160.7531380753138 230.58369074707844 L 161.4365411436541 230.876384512253 L 162.1199442119944 230.86673395842772 L 162.80334728033472 230.56763995772715 L 163.58437935843793 229.89415102474868 L 164.56066945606693 228.60384856858718 L 165.73221757322176 226.50136334608942 L 167.19665271966528 223.24788667260665 L 170.0278940027894 216.1448428970847 L 171.9804741980474 211.59430173812956 L 173.34728033472803 208.96419997908575 L 174.61645746164575 207.07864946225035 L 175.69037656903765 205.95540421112239 L 176.66666666666669 205.3262265948796 L 177.54532775453276 205.07741611029422 L 178.42398884239887 205.11794890718008 L 179.30264993026498 205.42886831356748 L 180.278940027894 206.06027402393678 L 181.4504881450488 207.15685106721264 L 183.01255230125523 209.0560872441035 L 185.64853556485355 212.8528152880032 L 188.87029288702928 217.37515488587644 L 190.8228730822873 219.61144538447064 L 192.58019525801953 221.1839664647551 L 194.23988842398884 222.28343798909015 L 195.80195258019526 223.00626737232912 L 197.46164574616458 223.48836397540927 L 199.2189679218968 223.72577020032574 L 201.0739191073919 223.70409352613422 L 202.83124128312414 223.42263967356783 L 204.49093444909346 222.8919245870157 L 206.05299860529985 222.1154189885458 L 207.61506276150627 221.0303864279581 L 209.17712691771268 219.61144538447064 L 210.9344490934449 217.62020699191794 L 213.17991631799163 214.5748657807922 L 218.25662482566247 207.4798424804813 L 219.6234309623431 206.1384618649866 L 220.697350069735 205.42886831356748 L 221.67364016736403 205.09968506794462 L 222.55230125523013 205.0904970019223 L 223.43096234309624 205.37230171928994 L 224.30962343096235 205.95540421112239 L 225.28591352859135 206.95815281434955 L 226.45746164574615 208.6368513176823 L 227.72663877266388 210.98435288939683 L 229.2887029288703 214.47360477163147 L 232.21757322175733 221.81889536713726 L 234.07252440725244 226.10197481198668 L 235.34170153417014 228.45003006492217 L 236.41562064156204 229.89415102474868 L 237.29428172942818 230.62747005864136 L 237.9776847977685 230.88618736207457 L 238.6610878661088 230.85332089348103 L 239.34449093444908 230.51667480599428 L 240.0278940027894 229.86920668531278 L 240.9065550906555 228.57815248825412 L 241.78521617852164 226.7817329630385 L 242.7615062761506 224.22564086504764 L 243.93305439330544 220.46288148146283 L 245.29986052998606 215.3016336298965 L 246.66666666666666 209.59781679040677" stroke-linecap="round" stroke-linejoin="round" stroke-miterlimit="10" stroke-dasharray=""/></g></g><g id="sketch-d0102c2c"><title>Expression 8</title><path fill="white" stroke="#c74440" class="dcg-svg-point" paint-order="fill stroke markers" d=" M 200.39375 200 L 200.39375 200 A 0.39375 0.39375 0 1 0 200.39374980312502 200.00039374993437 Z" stroke-linecap="round" stroke-linejoin="round" stroke-miterlimit="10" stroke-width="0.234375" stroke-dasharray=""/></g><g id="sketch-d0102c2c"><title>Expression 9</title><path fill="#c74440" stroke="none" paint-order="stroke fill markers" d="" fill-opacity="0.4"/><g><path fill="none" stroke="#c74440" class="dcg-svg-curve" paint-order="fill stroke markers" d=" M 246.5 209.5 L 246.5 209.5 L 246.5 190.5" stroke-linecap="round" stroke-linejoin="round" stroke-miterlimit="10" stroke-dasharray=""/></g></g><g id="sketch-d0102c2c"><title>Expression 10</title><path fill="#c74440" stroke="none" paint-order="stroke fill markers" d="" fill-opacity="0.4"/><g><path fill="none" stroke="#c74440" class="dcg-svg-curve" paint-order="fill stroke markers" d=" M 153.5 209.5 L 153.5 209.5 L 153.5 190.5" stroke-linecap="round" stroke-linejoin="round" stroke-miterlimit="10" stroke-dasharray=""/></g></g></g><g id="labels-d0102c2c"/></g></svg>