<svg version="1.1" xmlns="http://www.w3.org/2000/svg" xmlns:xlink="http://www.w3.org/1999/xlink" width="800" height="800"><defs/><g transform="scale(2,2)"><g id="background-59d8cf2b"><rect fill="white" stroke="none" x="0" y="0" width="400" height="400" class="dcg-svg-background"/></g><g id="background-images-59d8cf2b"/><g id="graphpaper-59d8cf2b"><g id="axis-59d8cf2b"><g><g><path fill="none" stroke="rgb(0,0,0)" class="dcg-svg-tickmark" paint-order="fill stroke markers" d="" stroke-opacity="0.9" stroke-miterlimit="2" stroke-width="1.5" stroke-dasharray=""/></g></g></g></g><g id="expressions-59d8cf2b"><g id="sketch-59d8cf2b"><title>Expression 8</title><path fill="#c74440" stroke="none" paint-order="stroke fill markers" d="" fill-opacity="0.4"/><g><path fill="none" stroke="#c74440" class="dcg-svg-curve" paint-order="fill stroke markers" d=" M 180.0690077563588 197.88142274684293 L 180.0690077563588 197.88142274684293 L 182.31273124800313 217.1695720609784 L 184.45890154435858 233.9247612167359 L 186.50751864542517 248.37290287688958 L 188.45858255120282 260.7296409468149 L 190.31209326169164 271.2003505744885 L 192.06805077689154 279.9801381504881 L 193.7264550968026 287.2538413079926 L 195.28730622142473 293.1960289227822 L 196.750604150758 297.97100111323806 L 198.11634888480236 301.7327892403428 L 199.48209361884676 304.82368521739056 L 200.75028515760224 307.093080602532 L 201.92092350106887 308.6744692419518 L 202.99400864924658 309.69107622443596 L 203.96954060213542 310.25585788137164 L 204.84751935973537 310.47150178674707 L 205.72549811733535 310.40988924235404 L 206.6034768749353 310.07102024819267 L 207.48145563253527 309.4548948042629 L 208.45698758542412 308.44513366004463 L 209.62762592889072 306.78159496143417 L 210.79826427235733 304.62515590767987 L 212.06645581111283 301.7327892403428 L 213.4322005451572 297.9710011132381 L 214.79794527920157 293.53832083607654 L 216.26124320853484 288.0445356277025 L 217.822094333157 281.3356141271336 L 219.48049865306803 273.2472562159886 L 221.23645616826792 263.6048930184873 L 223.08996687875674 252.2236869014508 L 225.04103078453443 238.90853147430133 L 227.08964788560098 223.45405158906237 L 229.23581818195643 205.64460334035832 L 230.1137969395564 197.88142274684293" stroke-linecap="round" stroke-linejoin="round" stroke-miterlimit="10" stroke-dasharray=""/></g></g><g id="sketch-59d8cf2b"><title>Expression 9</title><path fill="#c74440" stroke="none" paint-order="stroke fill markers" d="" fill-opacity="0.4"/><g><path fill="none" stroke="#c74440" class="dcg-svg-curve" paint-order="fill stroke markers" d=" M 149.4860810332936 149.22676659651188 L 149.4860810332936 149.22676659651188 L 149.609375 145.5259018506028 L 150 141.68427723009717 L 150.5859375 138.22194673360246 L 151.3671875 134.8858985099029 L 152.34375 131.63026324254892 L 153.61328125 128.2040453946541 L 155.078125 124.92401269035344 L 156.8359375 121.59776243757491 L 158.88671875 118.29007362328579 L 161.23046875 115.04826074235578 L 163.8671875 111.91033765862369 L 166.69921875 109.00249535279954 L 169.7265625 106.31662955367156 L 172.8515625 103.92175048256405 L 176.07421875 101.793077992847 L 179.39453125 99.91528137975962 L 182.91015625 98.23711980376711 L 186.5234375 96.81319545399157 L 190.13671875 95.67016852501371 L 193.84765625 94.77008718808955 L 197.55859375 94.13403973412503 L 201.3671875 93.74630172577312 L 205.17578125 93.6215093027279 L 208.984375 93.75788773243644 L 212.79296875 94.15737733657949 L 216.50390625 94.80520365319967 L 220.21484375 95.71757786536017 L 223.828125 96.87328550148376 L 227.34375 98.26810901529544 L 230.76171875 99.90145246344164 L 234.08203125 101.77684357896538 L 237.3046875 103.90286541600634 L 240.4296875 106.29475801293913 L 243.359375 108.88430723160008 L 246.19140625 111.77357664212849 L 248.82812500000003 114.88945671112123 L 251.26953125 118.2504503272493 L 253.41796875 121.72231716926441 L 255.17578125 125.07088225120842 L 256.640625 128.37899927055622 L 257.91015625 131.84485085794876 L 258.88671875 135.1549617474112 L 259.66796875 138.58016346356456 L 260.15625 141.49279532914946 L 260.546875 145.14726767561413 L 260.6967236626216 149.22676659651188" stroke-linecap="round" stroke-linejoin="round" stroke-miterlimit="10" stroke-dasharray=""/></g></g><g id="sketch-59d8cf2b"><title>Expression 11</title><path fill="#c74440" stroke="none" paint-order="stroke fill markers" d="" fill-opacity="0.4"/><g><path fill="none" stroke="#c74440" class="dcg-svg-curve" paint-order="fill stroke markers" d=" M 149.4860810332936 149.22676659651188 L 149.4860810332936 149.22676659651188 L 149.68099975010517 153.87854501459435 L 150.07083718372837 157.26972423135203 L 150.65559333416314 160.57112446819076 L 151.4352682014095 163.8202934819041 L 152.40986178546748 167.02022164239145 L 153.67683344474284 170.40444028848313 L 155.1387238208298 173.6538349116506 L 156.89299227213417 176.9551820699894 L 158.9396387986559 180.24235106297604 L 161.278663400395 183.46703038667212 L 163.91006607735153 186.59050973707923 L 166.73638747111963 189.48648085660773 L 169.75762758169932 192.16248738089325 L 172.87632705068484 194.5493954048464 L 176.09248587807613 196.67162513861172 L 179.503563422279 198.5949168314615 L 180.1857789311196 198.94257575944994" stroke-linecap="round" stroke-linejoin="round" stroke-miterlimit="10" stroke-dasharray=""/></g></g><g id="sketch-59d8cf2b"><title>Expression 12</title><path fill="#c74440" stroke="none" paint-order="stroke fill markers" d="" fill-opacity="0.4"/><g><path fill="none" stroke="#c74440" class="dcg-svg-curve" paint-order="fill stroke markers" d=" M 229.9970257647956 198.94257575944994 L 229.9970257647956 198.94257575944994 L 233.4081033089985 197.08192520235093 L 236.6242621363898 195.02666301637407 L 239.74296160537529 192.71493969606502 L 242.76420171595498 190.12556787828103 L 245.5905231097231 187.32890532954053 L 248.2219257866796 184.32248864933305 L 250.65840974682453 181.0952399709714 L 252.89997499015786 177.62205036728074 L 254.751702799868 174.24288774934078 L 256.3110525343607 170.87160878326665 L 257.5780241936361 167.58722099545776 L 258.65007713609987 164.17401093936786 L 259.42975200334627 161.029118702586 L 260.01450815378104 157.91032618629717 L 260.40434558740424 154.92150703807582 L 260.5992643042158 152.51751416386037 L 260.6967236626216 149.22676659651188" stroke-linecap="round" stroke-linejoin="round" stroke-miterlimit="10" stroke-dasharray=""/></g></g><g id="sketch-59d8cf2b"><title>Expression 21</title><path fill="white" stroke="#c74440" class="dcg-svg-point" paint-order="fill stroke markers" d=" M 205.8789023479576 174.87632420592934 L 205.8789023479576 174.87632420592934 A 0.7875 0.7875 0 1 0 205.87890195420763 174.8771117057981 Z" stroke-linecap="round" stroke-linejoin="round" stroke-miterlimit="10" stroke-width="0.46875" stroke-dasharray=""/></g></g><g id="labels-59d8cf2b"/></g></svg>